<svg xmlns="http://www.w3.org/2000/svg" width="40" height="40" viewBox="0 0 40 40" fill="none">
  <path d="M34.6979 5.58398L28.9687 11.248C31.5729 13.7871 33.0052 17.3027 32.7448 20.9486C32.4193 27.0033 27.7318 31.821 21.7422 32.6022C16.3385 33.3184 10.9349 34.0345 5.53125 34.7507L11.1302 29.1517C8.59115 26.6126 7.15885 23.097 7.41927 19.4512C7.74479 13.3965 12.4323 8.57878 18.4219 7.73242C23.8255 7.01628 29.2292 6.30013 34.6979 5.58398ZM29.4896 20.7533C29.75 15.5449 25.7786 11.1829 20.6354 10.9225C15.4922 10.597 10.9349 14.5033 10.6745 19.6465C10.349 24.8548 14.3854 29.2168 19.5286 29.4772C24.6719 29.8027 29.2292 25.8965 29.4896 20.7533Z" fill="#1E1E1E"/>
</svg>