<svg xmlns="http://www.w3.org/2000/svg" width="40" height="40" viewBox="0 0 40 40" fill="none">
  <path d="M17.9333 6.33412H33.2333V8.70078H17.9333V6.33412ZM15.9333 15.5341H35.2667V17.9008H15.9333V15.5341ZM20.7667 16.9341H23.2C22.9333 25.9341 22.0667 31.5341 15.6 34.6674C15.3 34.1008 14.6 33.2008 14.0333 32.7675C20 30.0341 20.5667 25.1008 20.7667 16.9341ZM26.9 17.1008H29.2667V30.9675C29.2667 31.9341 29.4 32.0674 30.1 32.0674C30.4333 32.0674 31.9667 32.0674 32.3667 32.0674C33.1333 32.0674 33.2667 31.3675 33.3333 27.3008C33.8667 27.7008 34.8 28.1008 35.5 28.3008C35.2667 33.0008 34.6667 34.3008 32.6 34.3008C32.1 34.3008 30.2333 34.3008 29.7333 34.3008C27.4333 34.3008 26.9 33.5675 26.9 30.9675V17.1008ZM6 5.40078H13.8667V7.66745H8.36667V34.6341H6V5.40078ZM13.4 5.40078H13.8333L14.2333 5.30078L15.9333 6.30078C14.9333 9.03412 13.7 12.3008 12.5667 14.9341C15.0333 17.7008 15.5667 20.1341 15.5667 22.1674C15.5667 24.0008 15.1667 25.4341 14.2333 26.1341C13.7667 26.4674 13.1667 26.6675 12.4667 26.7675C11.8 26.8341 10.9667 26.8341 10.2 26.8008C10.1667 26.1674 9.93333 25.1674 9.56667 24.5008C10.3333 24.5675 10.9667 24.6008 11.5 24.5341C11.9333 24.5341 12.2667 24.4341 12.5333 24.2341C13.0667 23.8674 13.2333 22.9674 13.2333 21.9341C13.2333 20.1341 12.6333 17.8341 10.2333 15.2008C11.4667 12.2008 12.6667 8.33412 13.4 6.10078V5.40078Z" fill="#1E1E1E"/>
</svg>