<svg xmlns="http://www.w3.org/2000/svg" width="40" height="40" viewBox="0 0 40 40" fill="none">
  <path d="M35.6823 15.3444L30.6693 8.67122C30.6042 8.58442 30.5282 8.51389 30.4414 8.45963C30.3546 8.40538 30.2569 8.3674 30.1484 8.3457L20.1549 6.68554C20.1115 6.66384 20.0627 6.65299 20.0085 6.65299C19.9542 6.65299 19.9054 6.66384 19.862 6.68554L9.86849 8.3457C9.75998 8.3674 9.66233 8.40538 9.57552 8.45963C9.48872 8.51389 9.41276 8.58442 9.34766 8.67122L4.33464 15.3444C4.22613 15.4963 4.17188 15.6699 4.17188 15.8652C4.17188 16.0605 4.24783 16.2342 4.39974 16.3861L19.3737 33.0527C19.4605 33.1395 19.5582 33.2101 19.6667 33.2643C19.7752 33.3186 19.8837 33.3457 19.9922 33.3457C20.1224 33.3457 20.2418 33.3186 20.3503 33.2643C20.4588 33.2101 20.5456 33.1395 20.6107 33.0527L35.6172 16.3861C35.7474 16.2342 35.8179 16.0605 35.8288 15.8652C35.8396 15.6699 35.7908 15.4963 35.6823 15.3444ZM25.4935 14.9863L19.9922 30.0579L14.5234 14.9863H25.4935ZM15.3372 13.3262L19.9922 8.67122L24.6471 13.3262H15.3372ZM22.4336 8.73633L28.5859 9.77799L26.5352 12.8704L22.4336 8.73633ZM13.4818 12.8704L11.3984 9.77799L17.5833 8.73633L13.4818 12.8704ZM11.9518 13.5866L6.97135 14.5957L9.96615 10.6243L11.9518 13.5866ZM12.7982 15.1165L17.7461 28.7559L6.61328 16.3535L12.7982 15.1165ZM27.2188 15.1165L33.4036 16.3535L22.2383 28.7559L27.2188 15.1165ZM28.0651 13.5866L30.0508 10.6243L33.0456 14.5957L28.0651 13.5866Z" fill="#1E1E1E"/>
</svg>