<svg xmlns="http://www.w3.org/2000/svg" width="40" height="40" viewBox="0 0 40 40" fill="none">
  <path d="M20.0013 29.9993C17.3491 29.9993 14.8056 28.9458 12.9302 27.0704C11.0549 25.1951 10.0013 22.6515 10.0013 19.9993C10.0013 17.3472 11.0549 14.8036 12.9302 12.9283C14.8056 11.0529 17.3491 9.99935 20.0013 9.99935C22.6535 9.99935 25.197 11.0529 27.0724 12.9283C28.9477 14.8036 30.0013 17.3472 30.0013 19.9993C30.0013 22.6515 28.9477 25.1951 27.0724 27.0704C25.197 28.9458 22.6535 29.9993 20.0013 29.9993ZM20.0013 26.666C21.7694 26.666 23.4651 25.9636 24.7153 24.7134C25.9656 23.4632 26.668 21.7675 26.668 19.9993C26.668 18.2312 25.9656 16.5355 24.7153 15.2853C23.4651 14.0351 21.7694 13.3327 20.0013 13.3327C18.2332 13.3327 16.5375 14.0351 15.2873 15.2853C14.037 16.5355 13.3346 18.2312 13.3346 19.9993C13.3346 21.7675 14.037 23.4632 15.2873 24.7134C16.5375 25.9636 18.2332 26.666 20.0013 26.666ZM18.3346 1.66602H21.668V6.66602H18.3346V1.66602ZM18.3346 33.3327H21.668V38.3327H18.3346V33.3327ZM5.85964 8.21435L8.2163 5.85768L11.7513 9.39268L9.39463 11.7493L5.85964 8.21601V8.21435ZM28.2513 30.606L30.608 28.2493L34.143 31.7843L31.7863 34.141L28.2513 30.606ZM31.7863 5.85602L34.143 8.21435L30.608 11.7493L28.2513 9.39268L31.7863 5.85768V5.85602ZM9.39463 28.2493L11.7513 30.606L8.2163 34.141L5.85964 31.7843L9.39463 28.2493ZM38.3346 18.3327V21.666H33.3346V18.3327H38.3346ZM6.66797 18.3327V21.666H1.66797V18.3327H6.66797Z" fill="#1E1E1E"/>
</svg>