<svg width="86" height="86" viewBox="0 0 86 86" fill="none" xmlns="http://www.w3.org/2000/svg">
<g id="Icons/ icon02" clip-path="url(#clip0_1741_8176)">
<path id="Vector" d="M85.1332 38.677C85.1022 38.5485 85.0556 38.4263 84.9931 38.3136C84.9931 38.3132 84.993 38.3128 84.993 38.3128L73.7177 17.8792C73.716 17.8761 73.7144 17.8731 73.7128 17.87L73.7103 17.8657C73.7064 17.8585 73.7017 17.8523 73.6978 17.8454C73.6943 17.8396 73.6906 17.8338 73.6873 17.8281C73.6754 17.808 73.6635 17.7875 73.6504 17.7675C73.6456 17.7601 73.6409 17.7526 73.6358 17.7454C73.6268 17.732 73.6167 17.7197 73.6072 17.707C73.5937 17.6881 73.58 17.6692 73.5651 17.6509C73.5602 17.645 73.5555 17.6388 73.5503 17.6329C73.5382 17.6181 73.5251 17.6043 73.5123 17.5904C73.4984 17.5747 73.4846 17.5593 73.47 17.5444C73.4649 17.5393 73.4597 17.5341 73.4544 17.529C73.4388 17.5136 73.4224 17.499 73.4062 17.4844C73.3929 17.4723 73.3799 17.46 73.3661 17.4485C73.36 17.4436 73.354 17.4387 73.348 17.4337C73.329 17.4183 73.3093 17.4042 73.2898 17.3898C73.2775 17.3809 73.266 17.3715 73.2533 17.3629C73.2463 17.358 73.2389 17.3532 73.2315 17.3483C73.211 17.3349 73.1898 17.3227 73.1687 17.3103C73.1634 17.3071 73.158 17.3035 73.1526 17.3005C73.1457 17.2965 73.1395 17.2918 73.1327 17.2881C73.1321 17.2877 73.1313 17.2875 73.1307 17.2871C73.1227 17.2828 73.1144 17.2787 73.1064 17.2746C73.0881 17.2649 73.0691 17.2563 73.0504 17.2475C73.0255 17.2358 73.0007 17.2241 72.9752 17.2136C72.9584 17.2066 72.9409 17.2009 72.9237 17.1947C72.8962 17.1847 72.8688 17.1748 72.8405 17.1664C72.822 17.1609 72.8031 17.1568 72.7846 17.152C72.7624 17.1463 72.7407 17.1395 72.7181 17.135C72.713 17.1338 72.7077 17.1333 72.7023 17.1325C72.6822 17.1284 72.6617 17.126 72.6414 17.1231C72.6184 17.1194 72.5953 17.1149 72.5724 17.1126C72.5724 17.1126 72.571 17.1126 72.5703 17.1124C72.5678 17.1124 72.5654 17.1124 72.5629 17.112C72.5383 17.1097 72.5133 17.1091 72.4882 17.1079C72.4673 17.107 72.4465 17.1052 72.4258 17.1052L72.4217 17.105H72.4176C72.4135 17.105 72.4096 17.105 72.4057 17.105H44.7607V10.8571C46.9384 10.2192 48.5339 8.2047 48.5339 5.82333C48.5339 2.93116 46.1809 0.578125 43.2887 0.578125C40.3965 0.578125 38.0435 2.93116 38.0435 5.82333C38.0435 8.20489 39.6394 10.2196 41.8175 10.8575V17.105H14.1696C14.1696 17.105 14.1667 17.105 14.1653 17.105H14.1564H14.1544C14.124 17.105 14.0936 17.1074 14.0632 17.1093C14.0488 17.1101 14.0342 17.1103 14.0199 17.1115C13.9841 17.1148 13.9486 17.1205 13.9133 17.1263C13.9022 17.1283 13.8913 17.1294 13.8805 17.1314C13.8466 17.138 13.8131 17.1466 13.7794 17.1554C13.7667 17.1589 13.7536 17.1616 13.7409 17.1653C13.7078 17.1751 13.6756 17.1867 13.6435 17.1986C13.6312 17.2033 13.6185 17.2072 13.6064 17.2121C13.5764 17.2244 13.5474 17.238 13.5183 17.2519C13.5039 17.2589 13.4892 17.2655 13.475 17.2728C13.4657 17.2776 13.4565 17.2821 13.4475 17.287C13.4468 17.2874 13.446 17.2876 13.4454 17.288C13.4386 17.2917 13.4325 17.2964 13.4255 17.3003C13.4173 17.305 13.4095 17.3102 13.4015 17.3149C13.384 17.3254 13.3664 17.3355 13.3495 17.3465C13.3413 17.3519 13.3329 17.3572 13.3249 17.3627C13.3107 17.3724 13.2978 17.3829 13.2842 17.3929C13.2667 17.4059 13.2491 17.4182 13.2323 17.4319C13.2255 17.4375 13.2187 17.4428 13.2119 17.4484C13.1971 17.4609 13.1832 17.474 13.1688 17.4872C13.154 17.5003 13.1392 17.5134 13.1251 17.5274C13.1193 17.5329 13.1138 17.5385 13.108 17.5442C13.0926 17.5599 13.0783 17.5763 13.0637 17.5925C13.052 17.6054 13.0399 17.6181 13.0288 17.6317C13.0234 17.6379 13.0181 17.6445 13.013 17.6508C12.9978 17.6696 12.9836 17.6892 12.9697 17.7085C12.9606 17.7206 12.9514 17.7321 12.943 17.7446C12.9376 17.752 12.9327 17.7598 12.9278 17.7674C12.9146 17.7874 12.9028 17.8079 12.8909 17.828C12.8872 17.8342 12.8835 17.8401 12.8798 17.8463C12.8761 17.8531 12.8715 17.8589 12.8679 17.8656L12.8654 17.8699C12.8637 17.873 12.8621 17.8761 12.8605 17.8792L1.58547 38.3126C1.58528 38.3128 1.58509 38.3132 1.58509 38.3136C1.52267 38.4263 1.47606 38.5485 1.44508 38.677C1.41736 38.7912 1.40258 38.9065 1.40234 39.0215C1.40234 39.0221 1.40234 39.0227 1.40234 39.0233C1.40234 46.0562 7.12388 51.7778 14.1567 51.7778C21.1893 51.7778 26.9107 46.0562 26.9107 39.0233C26.9107 39.0227 26.9106 39.0221 26.9106 39.0215C26.9106 38.9065 26.8958 38.7912 26.8681 38.677C26.837 38.5484 26.7902 38.4263 26.728 38.3136C26.7279 38.3132 26.7279 38.3128 26.7279 38.3128L16.6493 20.0483H41.8175V64.1274C41.8175 64.2859 41.8434 64.4383 41.8897 64.5816C36.4017 65.1647 32.0399 69.1398 31.2021 74.3041H21.3155C20.5027 74.3041 19.8438 74.9627 19.8438 75.7757V83.1594C19.8438 83.972 20.5026 84.631 21.3155 84.631H65.2625C66.0753 84.631 66.7342 83.972 66.7342 83.1594V75.7757C66.7342 74.9627 66.0753 74.3041 65.2625 74.3041H55.376C54.5379 69.1398 50.1764 65.1651 44.6885 64.5816C44.7349 64.4383 44.7607 64.2859 44.7607 64.1274V20.0483H69.929L59.8507 38.3126C59.8507 38.3126 59.8504 38.3132 59.8502 38.3136C59.788 38.4263 59.7412 38.5485 59.7102 38.677C59.6825 38.7912 59.6677 38.9065 59.6677 39.0215C59.6677 39.0221 59.6675 39.0227 59.6675 39.0233C59.6675 46.0562 65.389 51.7778 72.4216 51.7778C79.4544 51.7778 85.1759 46.0562 85.1759 39.0233C85.1759 39.0227 85.1759 39.0221 85.1759 39.0215C85.1757 38.9066 85.1609 38.7912 85.1332 38.677ZM14.1564 21.6228L22.946 37.5518H5.36679L14.1564 21.6228ZM14.1566 48.8345C9.24671 48.8345 5.16765 45.2096 4.45564 40.495H23.8574C23.1454 45.2096 19.0663 48.8345 14.1566 48.8345ZM40.9868 5.82338C40.9868 4.55419 42.0195 3.52149 43.2887 3.52149C44.5579 3.52149 45.5906 4.55419 45.5906 5.82338C45.5906 7.09281 44.5579 8.1257 43.2887 8.1257C42.0195 8.12565 40.9868 7.09276 40.9868 5.82338ZM63.7909 81.6878H22.7871V77.2474H32.5306H54.0474H63.7909V81.6878ZM52.3826 74.3041H34.1954C35.0787 70.3568 38.8011 67.4481 43.2889 67.4481C47.7766 67.4481 51.4991 70.3568 52.3826 74.3041ZM81.2114 37.5518H63.6322L72.4218 21.6228L81.2114 37.5518ZM72.4216 48.8345C67.5119 48.8345 63.4328 45.2096 62.7208 40.495H82.1226C81.4106 45.2096 77.3315 48.8345 72.4216 48.8345Z" fill="#E5A800"/>
</g>
<defs>
<clipPath id="clip0_1741_8176">
<rect width="85" height="85" fill="white" transform="translate(0.789062 0.105469)"/>
</clipPath>
</defs>
</svg>
