<svg width="86" height="86" viewBox="0 0 86 86" fill="none" xmlns="http://www.w3.org/2000/svg">
<g id="Icons/ icon03" clip-path="url(#clip0_1741_8146)">
<path id="Vector" d="M84.3375 36.3722L75.2635 34.9106C74.4951 31.9311 73.316 29.0867 71.7479 26.4303L77.1322 18.9778C77.5602 18.3858 77.4951 17.5708 76.9786 17.0541L69.4217 9.49717C68.9048 8.9807 68.0898 8.91554 67.4978 9.34337L60.0455 14.7279C57.3893 13.16 54.5449 11.9809 51.5653 11.2124L50.1034 2.13806C49.9871 1.41693 49.3648 0.886719 48.6341 0.886719H37.9468C37.2165 0.886719 36.5942 1.41688 36.4779 2.13806L35.0161 11.2122C32.0369 11.9807 29.1925 13.1598 26.5358 14.7279L19.0832 9.34313C18.4912 8.91573 17.676 8.98047 17.1595 9.49717L9.60259 17.0543C9.08612 17.5708 9.02096 18.3858 9.44879 18.9778L14.8334 26.4301C13.2661 29.0855 12.0866 31.9305 11.3179 34.9105L2.24353 36.3722C1.5224 36.4885 0.992188 37.1108 0.992188 37.8413V48.5288C0.992188 49.2593 1.52235 49.8816 2.24353 49.9979L11.3179 51.4597C12.0866 54.4396 13.2659 57.2846 14.8334 59.94L9.44879 67.3922C9.02096 67.9843 9.08612 68.7993 9.60259 69.3157L17.1595 76.8728C17.6762 77.3897 18.4909 77.4543 19.0832 77.0269L26.5358 71.6421C29.1921 73.2098 32.0364 74.3891 35.0161 75.1576L36.4779 84.2319C36.5942 84.953 37.2165 85.4833 37.9468 85.4833H48.6341C49.3648 85.4833 49.9871 84.953 50.1034 84.2319L51.5652 75.1574C54.5449 74.3889 57.3896 73.2096 60.045 71.6421L67.4977 77.0269C68.0902 77.4545 68.9052 77.3896 69.4216 76.873L76.9786 69.3161C77.4951 68.7995 77.5602 67.9845 77.1322 67.3925L71.7478 59.94C73.3151 57.2846 74.4946 54.4396 75.2631 51.4597L84.3374 49.9979C85.0586 49.8816 85.5888 49.2593 85.5888 48.5288V37.8412C85.5888 37.1107 85.0587 36.4884 84.3375 36.3722ZM82.6129 47.2613L73.8129 48.6789C73.213 48.7756 72.7318 49.2275 72.5981 49.8206C71.8458 53.1559 70.536 56.3164 68.7042 59.214C68.3792 59.728 68.3999 60.3877 68.7558 60.8805L73.9777 68.108L68.2135 73.8724L60.9854 68.6502C60.4922 68.294 59.8325 68.2739 59.319 68.5985C56.4215 70.4305 53.2612 71.7403 49.9262 72.492C49.3333 72.6256 48.8811 73.1068 48.7844 73.7069L47.3666 82.5073H39.2143L37.797 73.7072C37.7002 73.107 37.2481 72.626 36.6548 72.4923C33.3206 71.7405 30.1603 70.4304 27.2616 68.5985C26.7472 68.2736 26.0879 68.2942 25.5951 68.6502L18.3677 73.8724L12.6033 68.1077L17.8253 60.8805C18.1813 60.3877 18.2019 59.728 17.877 59.214C16.0453 56.3163 14.7352 53.1558 13.9829 49.8206C13.8492 49.2275 13.3683 48.7755 12.7681 48.6788L3.96813 47.2613V39.1088L12.7681 37.6914C13.3682 37.5947 13.8492 37.1427 13.9829 36.5497C14.7352 33.2142 16.0452 30.0537 17.877 27.156C18.2018 26.6421 18.1813 25.9824 17.8253 25.4895L12.6032 18.2622L18.3677 12.4976L25.5951 17.7198C26.0879 18.0758 26.748 18.0964 27.2615 17.7715C30.1607 15.9392 33.3209 14.6291 36.6548 13.8776C37.248 13.744 37.7002 13.2628 37.7969 12.6627L39.2143 3.86271H47.3666L48.7844 12.6629C48.8811 13.263 49.3332 13.7442 49.9261 13.8778C53.2611 14.6295 56.4214 15.9394 59.3193 17.7715C59.8329 18.0962 60.4926 18.076 60.9858 17.7198L68.2135 12.4978L73.9777 18.2622L68.7558 25.4897C68.3999 25.9825 68.3792 26.6422 68.7042 27.1562C70.5364 30.0549 71.8467 33.2152 72.5981 36.5494C72.7318 37.1425 73.213 37.5946 73.8129 37.6913L82.6129 39.1087V47.2613Z" fill="#E5A800"/>
<path id="Vector_2" d="M43.2874 20.3008C30.6687 20.3008 20.4023 30.5669 20.4023 43.1858C20.4023 55.8047 30.6687 66.071 43.2874 66.071C55.9065 66.071 66.1728 55.8047 66.1728 43.1858C66.1728 30.5669 55.9065 20.3008 43.2874 20.3008ZM56.2672 28.1016L43.2878 41.0813L30.3079 28.1018C33.7957 25.0962 38.3331 23.2767 43.2874 23.2767C48.242 23.2767 52.7794 25.0964 56.2672 28.1016ZM23.3783 43.1858C23.3783 38.2313 25.198 33.6941 28.2035 30.2064L41.7999 43.8023V63.0397C31.514 62.2761 23.3783 53.6632 23.3783 43.1858ZM44.7758 63.0397V43.8023L58.3717 30.2061C61.3772 33.6939 63.1969 38.2312 63.1969 43.1858C63.1969 53.6632 55.0616 62.2757 44.7758 63.0397Z" fill="#E5A800"/>
</g>
<defs>
<clipPath id="clip0_1741_8146">
<rect width="85" height="85" fill="white" transform="translate(0.789062 0.685547)"/>
</clipPath>
</defs>
</svg>
