<svg width="85" height="86" viewBox="0 0 85 86" fill="none" xmlns="http://www.w3.org/2000/svg">
<g id="Icons/ icon01" clip-path="url(#clip0_1741_8168)">
<path id="Vector" d="M45.1237 23.0876C45.1705 22.5422 44.9126 21.9917 44.4125 21.6892C44.1564 21.5343 43.8695 21.4663 43.5948 21.4754C43.0321 21.4918 42.5482 21.821 42.3103 22.2952L29.1012 44.132C28.8238 44.5907 28.8148 45.1629 29.0782 45.6299C29.3415 46.0969 29.8358 46.3856 30.3718 46.3856H38.5079V65.2724C38.5079 65.942 38.9564 66.5291 39.6028 66.7052C39.7322 66.7404 39.8634 66.7574 39.9929 66.7574C40.5095 66.7574 41.0013 66.4868 41.2728 66.0252L55.9068 41.1467C56.177 40.6876 56.1805 40.1189 55.916 39.6565C55.6516 39.1941 55.1596 38.9089 54.6269 38.9089H45.1237V23.0876ZM52.0305 41.8789L41.4779 59.8187V44.9006C41.4779 44.0802 40.8131 43.4155 39.9929 43.4155H33.0056L42.1538 28.2925V40.3939C42.1538 41.2141 42.8186 41.8789 43.6388 41.8789H52.0305Z" fill="#E5A800"/>
<path id="Vector_2" d="M71.1749 14.0282H54.8043V2.47523C54.8043 1.65503 54.1395 0.990234 53.3193 0.990234H31.6805C30.8603 0.990234 30.1955 1.65508 30.1955 2.47523V14.0282H13.8248C13.0046 14.0282 12.3398 14.6931 12.3398 15.5132V84.3189C12.3398 85.1393 13.0046 85.8039 13.8248 85.8039H71.175C71.9952 85.8039 72.6599 85.1393 72.6599 84.3189V15.5133C72.6599 14.6931 71.9951 14.0282 71.1749 14.0282ZM33.1655 3.96028H51.8343V14.0283H33.1655V3.96028ZM69.6899 82.8339H15.3098V74.235H69.6899V82.8339ZM69.6899 71.265H15.3098V16.9983H31.6805H53.3193H69.6899V71.265Z" fill="#E5A800"/>
</g>
<defs>
<clipPath id="clip0_1741_8168">
<rect width="85" height="85" fill="white" transform="translate(0 0.896484)"/>
</clipPath>
</defs>
</svg>
