<svg width="32" height="32" viewBox="0 0 32 32" fill="none" xmlns="http://www.w3.org/2000/svg">
<g id="Icons/mail-line">
<path id="Vector" d="M4.0013 4H28.0013C28.3549 4 28.6941 4.14048 28.9441 4.39052C29.1942 4.64057 29.3346 4.97971 29.3346 5.33333V26.6667C29.3346 27.0203 29.1942 27.3594 28.9441 27.6095C28.6941 27.8595 28.3549 28 28.0013 28H4.0013C3.64768 28 3.30854 27.8595 3.05849 27.6095C2.80844 27.3594 2.66797 27.0203 2.66797 26.6667V5.33333C2.66797 4.97971 2.80844 4.64057 3.05849 4.39052C3.30854 4.14048 3.64768 4 4.0013 4ZM26.668 9.65067L16.0973 19.1173L5.33464 9.62133V25.3333H26.668V9.65067ZM6.01597 6.66667L16.0826 15.5493L26.004 6.66667H6.01597Z" fill="#FDFDFD"/>
</g>
</svg>
