<svg width="32" height="32" viewBox="0 0 32 32" fill="none" xmlns="http://www.w3.org/2000/svg">
<g id="Icons/map-pin-line">
<path id="Vector" d="M16 27.8659L22.6 21.2659C23.9052 19.9606 24.794 18.2975 25.1541 16.4871C25.5141 14.6766 25.3292 12.8 24.6228 11.0947C23.9163 9.38926 22.7201 7.93165 21.1852 6.90614C19.6504 5.88062 17.8459 5.33325 16 5.33325C14.1541 5.33325 12.3496 5.88062 10.8148 6.90614C9.27994 7.93165 8.08367 9.38926 7.37722 11.0947C6.67077 12.8 6.48589 14.6766 6.84594 16.4871C7.20599 18.2975 8.09481 19.9606 9.4 21.2659L16 27.8659ZM16 31.6366L7.51467 23.1512C5.83646 21.473 4.69358 19.3348 4.23057 17.007C3.76756 14.6793 4.00521 12.2665 4.91346 10.0738C5.82172 7.88107 7.35979 6.00694 9.33318 4.68837C11.3066 3.3698 13.6266 2.66602 16 2.66602C18.3734 2.66602 20.6934 3.3698 22.6668 4.68837C24.6402 6.00694 26.1783 7.88107 27.0865 10.0738C27.9948 12.2665 28.2324 14.6793 27.7694 17.007C27.3064 19.3348 26.1636 21.473 24.4853 23.1512L16 31.6366ZM16 17.3326C16.7072 17.3326 17.3855 17.0516 17.8856 16.5515C18.3857 16.0514 18.6667 15.3732 18.6667 14.6659C18.6667 13.9587 18.3857 13.2804 17.8856 12.7803C17.3855 12.2802 16.7072 11.9992 16 11.9992C15.2928 11.9992 14.6145 12.2802 14.1144 12.7803C13.6143 13.2804 13.3333 13.9587 13.3333 14.6659C13.3333 15.3732 13.6143 16.0514 14.1144 16.5515C14.6145 17.0516 15.2928 17.3326 16 17.3326ZM16 19.9992C14.5855 19.9992 13.229 19.4373 12.2288 18.4371C11.2286 17.437 10.6667 16.0804 10.6667 14.6659C10.6667 13.2514 11.2286 11.8949 12.2288 10.8947C13.229 9.89448 14.5855 9.33258 16 9.33258C17.4145 9.33258 18.771 9.89448 19.7712 10.8947C20.7714 11.8949 21.3333 13.2514 21.3333 14.6659C21.3333 16.0804 20.7714 17.437 19.7712 18.4371C18.771 19.4373 17.4145 19.9992 16 19.9992Z" fill="#FDFDFD"/>
</g>
</svg>
