<svg width="32" height="32" viewBox="0 0 32 32" fill="none" xmlns="http://www.w3.org/2000/svg">
<g id="Icons/messenger-line">
<path id="Vector" d="M10.3533 25.6327C11.14 25.286 12.02 25.2207 12.844 25.4473C13.8706 25.7274 14.9306 25.8687 16.0013 25.866C22.1146 25.866 26.668 21.4833 26.668 15.5993C26.668 9.71535 22.1146 5.33268 16.0013 5.33268C9.88797 5.33268 5.33464 9.71535 5.33464 15.5993C5.33464 18.626 6.5293 21.2953 8.62264 23.1673C9.00298 23.5042 9.31055 23.9152 9.52652 24.3751C9.74249 24.835 9.8623 25.3342 9.87864 25.842L10.3533 25.6327ZM16.0013 2.66602C23.5133 2.66602 29.3346 8.16868 29.3346 15.5993C29.3346 23.03 23.5133 28.5327 16.0013 28.5327C14.6975 28.536 13.3992 28.3638 12.1413 28.0207C11.905 27.9557 11.6536 27.9741 11.4293 28.0727L8.78397 29.2407C8.62414 29.3113 8.44941 29.3416 8.27513 29.3289C8.10086 29.3162 7.93238 29.2608 7.7845 29.1677C7.63663 29.0746 7.51389 28.9466 7.42708 28.795C7.34026 28.6433 7.29204 28.4727 7.28664 28.298L7.2133 25.9247C7.2085 25.7804 7.17433 25.6386 7.1129 25.5079C7.05146 25.3772 6.96404 25.2604 6.85597 25.1647C4.2613 22.846 2.66797 19.4887 2.66797 15.5993C2.66797 8.16868 8.49064 2.66602 16.0013 2.66602ZM7.99464 19.382L11.9106 13.1687C12.058 12.9348 12.2522 12.7339 12.4811 12.5788C12.71 12.4238 12.9685 12.3178 13.2404 12.2677C13.5123 12.2176 13.7916 12.2244 14.0607 12.2877C14.3298 12.3509 14.5829 12.4693 14.804 12.6353L17.9186 14.9687C18.0575 15.0735 18.2267 15.1302 18.4006 15.1302C18.5746 15.1302 18.7438 15.0735 18.8826 14.9687L23.0893 11.774C23.6506 11.3487 24.384 12.0207 24.008 12.618L20.092 18.8313C19.9446 19.0653 19.7504 19.2661 19.5215 19.4212C19.2926 19.5763 19.0341 19.6822 18.7622 19.7323C18.4903 19.7824 18.211 19.7756 17.9419 19.7124C17.6728 19.6491 17.4197 19.5307 17.1986 19.3647L14.084 17.0313C13.9451 16.9265 13.7759 16.8698 13.602 16.8698C13.428 16.8698 13.2588 16.9265 13.12 17.0313L8.9133 20.2247C8.35197 20.65 7.61864 19.978 7.99464 19.3807V19.382Z" fill="#FDFDFD"/>
</g>
</svg>
