<svg width="48" height="48" viewBox="0 0 48 48" fill="none" xmlns="http://www.w3.org/2000/svg">
<g id="Icons/smartphone-line">
<path id="Vector" d="M14 8V40H34V8H14ZM12 4H36C36.5304 4 37.0391 4.21071 37.4142 4.58579C37.7893 4.96086 38 5.46957 38 6V42C38 42.5304 37.7893 43.0391 37.4142 43.4142C37.0391 43.7893 36.5304 44 36 44H12C11.4696 44 10.9609 43.7893 10.5858 43.4142C10.2107 43.0391 10 42.5304 10 42V6C10 5.46957 10.2107 4.96086 10.5858 4.58579C10.9609 4.21071 11.4696 4 12 4ZM24 34C24.5304 34 25.0391 34.2107 25.4142 34.5858C25.7893 34.9609 26 35.4696 26 36C26 36.5304 25.7893 37.0391 25.4142 37.4142C25.0391 37.7893 24.5304 38 24 38C23.4696 38 22.9609 37.7893 22.5858 37.4142C22.2107 37.0391 22 36.5304 22 36C22 35.4696 22.2107 34.9609 22.5858 34.5858C22.9609 34.2107 23.4696 34 24 34Z" fill="#FCB900"/>
</g>
</svg>
