<svg xmlns="http://www.w3.org/2000/svg" width="130" height="101" viewBox="0 0 130 101" fill="none">
  <path opacity="0.2" d="M0 67.305C0 64.2621 0.292793 61.0809 0.878378 57.7614C4.0991 37.0145 14.4932 17.9274 32.0608 0.5L40.8446 6.72407C30.3041 17.2358 24.8874 26.6411 24.5946 34.9398C24.8874 39.6425 28.5473 42.962 35.5743 44.8983C37.6239 45.4516 39.8198 46.1432 42.1622 46.973C53.5811 51.9523 59.2905 60.3894 59.2905 72.2842C59.2905 76.7102 58.2658 80.8596 56.2162 84.7324C50.9459 95.2441 42.455 100.5 30.7432 100.5C26.6441 100.5 22.8378 99.8084 19.3243 98.4253C6.44144 93.9993 0 83.6259 0 67.305ZM70.7095 67.305C70.7095 64.2621 71.0023 61.0809 71.5878 57.7614C74.8086 37.0145 85.2027 17.9274 102.77 0.5L111.554 6.72407C101.014 17.2358 95.5969 26.6411 95.3041 34.9398C95.5969 39.6425 99.2568 42.962 106.284 44.8983C108.333 45.4516 110.529 46.1432 112.872 46.973C124.291 51.9523 130 60.3894 130 72.2842C130 76.7102 128.975 80.8596 126.926 84.7324C121.655 95.2441 113.164 100.5 101.453 100.5C97.3536 100.5 93.5473 99.8084 90.0338 98.4253C77.1509 93.9993 70.7095 83.6259 70.7095 67.305Z" fill="#F16E21"/>
</svg>