<svg width="48" height="48" viewBox="0 0 48 48" fill="none" xmlns="http://www.w3.org/2000/svg">
<g id="Icons/settings-4-line">
<path id="Vector" d="M4 24.0006C4 22.2706 4.22 20.5946 4.632 18.9926C5.73693 19.0507 6.8364 18.8021 7.80888 18.2743C8.78136 17.7466 9.58896 16.9602 10.1424 16.0021C10.6959 15.044 10.9736 13.9515 10.9449 12.8455C10.9163 11.7394 10.5823 10.6627 9.98 9.73461C12.3979 7.35575 15.3816 5.6316 18.65 4.72461C19.152 5.71155 19.9173 6.54034 20.8612 7.11923C21.8051 7.69812 22.8907 8.00452 23.998 8.00452C25.1053 8.00452 26.1909 7.69812 27.1348 7.11923C28.0787 6.54034 28.844 5.71155 29.346 4.72461C32.6144 5.6316 35.5981 7.35575 38.016 9.73461C37.413 10.6629 37.0785 11.7399 37.0497 12.8465C37.0208 13.9531 37.2986 15.0461 37.8524 16.0046C38.4062 16.9631 39.2143 17.7497 40.1874 18.2774C41.1605 18.8051 42.2606 19.0533 43.366 18.9946C43.778 20.5946 43.998 22.2706 43.998 24.0006C43.998 25.7306 43.778 27.4066 43.366 29.0086C42.2609 28.9501 41.1612 29.1984 40.1884 29.726C39.2156 30.2536 38.4077 31.04 37.854 31.9982C37.3003 32.9563 37.0224 34.049 37.051 35.1552C37.0796 36.2615 37.4135 37.3383 38.016 38.2666C35.5981 40.6455 32.6144 42.3696 29.346 43.2766C28.844 42.2897 28.0787 41.4609 27.1348 40.882C26.1909 40.3031 25.1053 39.9967 23.998 39.9967C22.8907 39.9967 21.8051 40.3031 20.8612 40.882C19.9173 41.4609 19.152 42.2897 18.65 43.2766C15.3816 42.3696 12.3979 40.6455 9.98 38.2666C10.583 37.3383 10.9175 36.2613 10.9463 35.1547C10.9752 34.0481 10.6974 32.9551 10.1436 31.9966C9.58985 31.0381 8.78171 30.2515 7.80861 29.7238C6.83552 29.1961 5.73541 28.9479 4.63 29.0066C4.22 27.4086 4 25.7326 4 24.0006ZM13.608 30.0006C14.868 32.1826 15.228 34.6926 14.736 37.0486C15.552 37.6286 16.42 38.1306 17.33 38.5486C19.1633 36.9063 21.5386 35.9989 24 36.0006C26.52 36.0006 28.876 36.9426 30.67 38.5486C31.58 38.1306 32.448 37.6286 33.264 37.0486C32.7589 34.6405 33.1605 32.1308 34.392 30.0006C35.6213 27.8694 37.594 26.2669 39.932 25.5006C40.0245 24.5027 40.0245 23.4985 39.932 22.5006C37.5933 21.7347 35.6197 20.1322 34.39 18.0006C33.1586 15.8705 32.7569 13.3607 33.262 10.9526C32.4462 10.3725 31.5777 9.87025 30.668 9.45261C28.8352 11.0945 26.4607 12.0018 24 12.0006C21.5386 12.0023 19.1633 11.0949 17.33 9.45261C16.4203 9.87026 15.5518 10.3725 14.736 10.9526C15.2411 13.3607 14.8394 15.8705 13.608 18.0006C12.3787 20.1319 10.406 21.7343 8.068 22.5006C7.97551 23.4985 7.97551 24.5027 8.068 25.5006C10.4067 26.2665 12.3803 27.869 13.61 30.0006H13.608ZM24 30.0006C22.4087 30.0006 20.8826 29.3685 19.7574 28.2433C18.6321 27.118 18 25.5919 18 24.0006C18 22.4093 18.6321 20.8832 19.7574 19.758C20.8826 18.6327 22.4087 18.0006 24 18.0006C25.5913 18.0006 27.1174 18.6327 28.2426 19.758C29.3679 20.8832 30 22.4093 30 24.0006C30 25.5919 29.3679 27.118 28.2426 28.2433C27.1174 29.3685 25.5913 30.0006 24 30.0006ZM24 26.0006C24.5304 26.0006 25.0391 25.7899 25.4142 25.4148C25.7893 25.0397 26 24.531 26 24.0006C26 23.4702 25.7893 22.9615 25.4142 22.5864C25.0391 22.2113 24.5304 22.0006 24 22.0006C23.4696 22.0006 22.9609 22.2113 22.5858 22.5864C22.2107 22.9615 22 23.4702 22 24.0006C22 24.531 22.2107 25.0397 22.5858 25.4148C22.9609 25.7899 23.4696 26.0006 24 26.0006Z" fill="#FCB900"/>
</g>
</svg>
