<svg width="48" height="48" viewBox="0 0 48 48" fill="none" xmlns="http://www.w3.org/2000/svg">
<g id="Icons/mac-line">
<path id="Vector" d="M28.0001 36V40L32.0001 42V44H16.0001L15.9921 42.008L20.0001 40V36H5.98408C5.72145 35.9984 5.46172 35.945 5.21976 35.8429C4.9778 35.7408 4.75838 35.5919 4.57406 35.4048C4.38975 35.2177 4.24418 34.9961 4.14568 34.7526C4.04719 34.5091 3.99771 34.2486 4.00008 33.986V8.014C4.00008 6.902 4.91008 6 5.98408 6H42.0161C43.1121 6 44.0001 6.898 44.0001 8.014V33.986C44.0001 35.098 43.0901 36 42.0161 36H28.0001ZM8.00008 10V28H40.0001V10H8.00008Z" fill="#FCB900"/>
</g>
</svg>
