<svg width="32" height="32" viewBox="0 0 32 32" fill="none" xmlns="http://www.w3.org/2000/svg">
<g id="Icons/whatsapp-line">
<path id="Vector" d="M9.67199 24.658L10.6373 25.222C12.2652 26.1714 14.1168 26.6699 16.0013 26.666C18.111 26.666 20.1733 26.0404 21.9274 24.8684C23.6815 23.6963 25.0487 22.0304 25.856 20.0813C26.6634 18.1322 26.8746 15.9875 26.463 13.9184C26.0515 11.8493 25.0356 9.94864 23.5438 8.45688C22.052 6.96512 20.1514 5.94922 18.0823 5.53764C16.0132 5.12606 13.8684 5.3373 11.9194 6.14463C9.97029 6.95197 8.30438 8.31914 7.13231 10.0733C5.96024 11.8274 5.33465 13.8897 5.33465 15.9993C5.33465 17.914 5.83732 19.75 6.77999 21.3647L7.34265 22.33L6.47199 25.5313L9.67199 24.658ZM2.67332 29.3327L4.47599 22.7087C3.28817 20.6725 2.66411 18.3567 2.66799 15.9993C2.66799 8.63535 8.63732 2.66602 16.0013 2.66602C23.3653 2.66602 29.3347 8.63535 29.3347 15.9993C29.3347 23.3633 23.3653 29.3327 16.0013 29.3327C13.645 29.3365 11.3302 28.7129 9.29465 27.526L2.67332 29.3327ZM11.1893 9.74335C11.368 9.73002 11.548 9.73002 11.7267 9.73802C11.7987 9.74335 11.8707 9.75135 11.9427 9.75935C12.1547 9.78335 12.388 9.91268 12.4667 10.0913C12.864 10.9927 13.2507 11.9007 13.624 12.8113C13.7067 13.014 13.6573 13.274 13.5 13.5273C13.3918 13.6987 13.2747 13.8642 13.1493 14.0233C12.9987 14.2167 12.6747 14.5713 12.6747 14.5713C12.6747 14.5713 12.5427 14.7287 12.5933 14.9247C12.612 14.9993 12.6733 15.1073 12.7293 15.198L12.808 15.3247C13.1493 15.894 13.608 16.4713 14.168 17.0153C14.328 17.17 14.484 17.3287 14.652 17.4767C15.276 18.0273 15.9827 18.4767 16.7453 18.81L16.752 18.8127C16.8653 18.862 16.9227 18.8887 17.088 18.9594C17.1707 18.994 17.256 19.0247 17.3427 19.0473C17.4322 19.0702 17.5265 19.0659 17.6136 19.035C17.7008 19.0041 17.7768 18.9481 17.832 18.874C18.7973 17.7047 18.8853 17.6287 18.8933 17.6287V17.6313C18.9604 17.5688 19.0401 17.5213 19.127 17.4921C19.2139 17.4629 19.3061 17.4526 19.3973 17.462C19.4773 17.4674 19.5587 17.482 19.6333 17.5153C20.3413 17.8393 21.5 18.3447 21.5 18.3447L22.276 18.6927C22.4067 18.7554 22.5253 18.9033 22.5293 19.046C22.5347 19.1353 22.5427 19.2794 22.512 19.5434C22.4693 19.8887 22.3653 20.3033 22.2613 20.5207C22.1901 20.669 22.0956 20.8049 21.9813 20.9233C21.8468 21.0646 21.6995 21.1932 21.5413 21.3074C21.4866 21.3485 21.431 21.3885 21.3747 21.4273C21.2088 21.5326 21.0384 21.6304 20.864 21.7207C20.5207 21.903 20.1415 22.0077 19.7533 22.0273C19.5067 22.0407 19.26 22.0593 19.012 22.046C19.0013 22.046 18.2547 21.93 18.2547 21.93C16.359 21.4314 14.6058 20.4973 13.1347 19.202C12.8333 18.9367 12.5547 18.6513 12.2693 18.3673C11.0827 17.1873 10.1867 15.914 9.64265 14.7113C9.36421 14.1211 9.21381 13.4786 9.20132 12.826C9.19582 12.0165 9.46045 11.2282 9.95332 10.586C10.0507 10.4607 10.1427 10.33 10.3013 10.1793C10.4707 10.0193 10.5773 9.93402 10.6933 9.87535C10.8476 9.79806 11.0158 9.75271 11.188 9.74202L11.1893 9.74335Z" fill="#FDFDFD"/>
</g>
</svg>
